#!OML:ASF H:\Male1\Project 1\Capture day 1\Session 1\Male1.ASF
:FULLY-SPECIFIED
:DEGREES
135
root -27.8391 14.5797 0.0791509 30.4456 81.9268 25.9974
lowerback 8.31007 2.03634 -6.47788
upperback 3.59844 2.34409 -4.30397
thorax -0.981527 1.22846 -1.03997
lowerneck -12.0184 4.64436 6.92194
upperneck 12.1424 5.2108 -0.880482
head 5.85716 2.80346 -0.943456
rclavicle -2.94201e-014 3.26007e-014
rhumerus -40.842 14.9348 -98.5652
rradius 66.0705
rwrist -24.1613
rhand -27.5181 6.72831
rfingers 7.12502
rthumb -0.920457 -23.2494
lclavicle -2.94201e-014 3.26007e-014
lhumerus -35.5073 -9.02054 87.2069
lradius 50.378
lwrist 15.5801
lhand -28.6789 8.03525
lfingers 7.12502
lthumb -2.04164 38.0052
rfemur -32.7226 1.25932 18.6391
rtibia 66.3867
rfoot -25.809 -20.9526
rtoes -26.6205
lfemur 2.02434 -13.3527 -32.9377
ltibia 22.5316
lfoot -34.0165 23.6616
ltoes -9.69289
136
root -27.6501 14.5647 0.0537113 32.5141 82.0656 27.8635
lowerback 8.59077 1.8406 -6.72509
upperback 3.68502 2.04977 -4.28233
thorax -1.04481 1.08232 -0.861036
lowerneck -12.0606 4.69619 6.94006
upperneck 11.9378 5.29172 -1.03317
head 5.807 2.82733 -0.98836
rclavicle -2.38542e-015 -3.97569e-015
rhumerus -41.9272 14.4976 -98.2189
rradius 66.5076
rwrist -24.3322
rhand -28.1154 7.01418
rfingers 7.12502
rthumb -1.49737 -22.9603
lclavicle -2.38542e-015 -3.97569e-015
lhumerus -34.6994 -9.59889 87.056
lradius 53.9565
lwrist 16.3072
lhand -29.0194 8.00352
lfingers 7.12502
lthumb -2.37041 37.9701
rfemur -35.1311 0.523951 19.1983
rtibia 67.9243
rfoot -24.873 -19.7747
rtoes -27.7846
lfemur 3.61731 -13.527 -33.4445
ltibia 20.609
lfoot -33.5029 23.8903
ltoes -9.94227
137
root -27.4508 14.5453 0.0312032 34.7315 82.2094 29.914
lowerback 8.93833 1.66667 -7.01147
upperback 3.77361 1.7737 -4.23115
thorax -1.14226 0.9456 -0.631887
lowerneck -12.0833 4.71483 6.92938
upperneck 11.6874 5.33318 -1.18247
head 5.73674 2.83063 -1.03215
rclavicle -5.1684e-015 -3.57812e-014
rhumerus -43.1996 14.0015 -97.8046
rradius 67.1021
rwrist -24.5361
rhand -28.6735 7.12307
rfingers 7.12502
rthumb -2.03641 -22.847
lclavicle -5.1684e-015 -3.57812e-014
lhumerus -33.8525 -10.2177 86.9146
lradius 57.9773
lwrist 16.8075
lhand -29.3048 7.99307
lfingers 7.12502
lthumb -2.64608 37.9564
rfemur -37.441 -0.0465488 19.7701
rtibia 69.0718
rfoot -24.0212 -18.646
rtoes -29.1109
lfemur 5.4119 -13.6661 -33.96
ltibia 18.4595
lfoot -32.8199 24.0679
ltoes -10.1121
138
root -27.241 14.5206 0.011306 37.0617 82.3671 32.1282
lowerback 9.37296 1.5112 -7.30898
upperback 3.86313 1.51078 -4.15554
thorax -1.28439 0.816577 -0.37278
lowerneck -12.0625 4.70936 6.90582
upperneck 11.3681 5.34687 -1.33225
head 5.63615 2.81945 -1.07817
rclavicle -3.97569e-016 2.3059e-014
rhumerus -44.6595 13.4726 -97.337
rradius 67.8798
rwrist -24.7494
rhand -29.1885 7.11796
rfingers 7.12502
rthumb -2.53379 -22.8467
lclavicle -3.97569e-016 2.3059e-014
lhumerus -32.9438 -10.8554 86.7594
lradius 62.3764
lwrist 17.0749
lhand -29.5412 8.1421
lfingers 7.12502
lthumb -2.87434 38.1025
rfemur -39.6141 -0.477607 20.3382
rtibia 69.8653
rfoot -23.271 -17.656
rtoes -30.3052
lfemur 7.45943 -13.7835 -34.4791
ltibia 16.023
lfoot -31.9571 24.1613
ltoes -10.0177
139
root -27.0207 14.4902 -0.00619918 39.4561 82.5391 34.4621
lowerback 9.88905 1.37083 -7.59211
upperback 3.95723 1.25918 -4.06178
thorax -1.46321 0.694655 -0.103128
lowerneck -11.9873 4.69214 6.88426
upperneck 10.9702 5.34863 -1.4908
head 5.50176 2.80165 -1.13017
rclavicle 1.11319e-014 4.05521e-014
rhumerus -46.3006 12.957 -96.8449
rradius 68.8666
rwrist -25.0248
rhand -29.6984 7.04366
rfingers 7.12502
rthumb -3.02616 -22.9146
lclavicle 1.11319e-014 4.05521e-014
lhumerus -31.9623 -11.4929 86.5701
lradius 67.0836
lwrist 17.156
lhand -29.7354 8.20439
lfingers 7.12502
lthumb -3.06197 38.1622
rfemur -41.6278 -0.799853 20.8899
rtibia 70.3386
rfoot -22.5825 -16.8479
rtoes -31.3321
lfemur 9.83545 -13.8889 -34.9977
ltibia 13.1784
lfoot -30.8822 24.1642
ltoes -9.58618
140
root -26.79 14.4542 -0.0212715 41.829 82.7156 36.8247
lowerback 10.4381 1.24607 -7.84019
upperback 4.08401 1.02987 -3.96077
thorax -1.62277 0.584048 0.155037
lowerneck -11.881 4.67334 6.88357
upperneck 10.4852 5.34803 -1.6689
head 5.3363 2.78183 -1.19312
rclavicle -2.38542e-015 2.94201e-014
rhumerus -48.0474 12.4729 -96.3382
rradius 70.0544
rwrist -25.3604
rhand -30.1863 6.917
rfingers 7.12502
rthumb -3.49735 -23.0341
lclavicle -2.38542e-015 2.94201e-014
lhumerus -30.8377 -12.1161 86.308
lradius 72.014
lwrist 17.1331
lhand -29.8579 8.21814
lfingers 7.12502
lthumb -3.18019 38.1742
rfemur -43.4735 -1.02847 21.4155
rtibia 70.5158
rfoot -21.907 -16.1813
rtoes -32.1678
lfemur 12.6933 -13.3186 -35.3534
ltibia 9.55807
lfoot -29.3714 23.4436
ltoes -8.98785
141
root -26.5497 14.4131 -0.033708 44.3826 82.8994 39.4128
lowerback 11.0233 1.13058 -8.0532
upperback 4.24142 0.814803 -3.86578
thorax -1.76655 0.481028 0.388545
lowerneck -11.758 4.65615 6.90501
upperneck 9.9359 5.34671 -1.85458
head 5.14935 2.76213 -1.26269
rclavicle -1.98785e-015 3.97569e-014
rhumerus -49.8629 12.0168 -95.8379
rradius 71.4198
rwrist -25.7725
rhand -30.6279 6.75767
rfingers 7.12502
rthumb -3.92382 -23.186
lclavicle -1.98785e-015 3.97569e-014
lhumerus -29.548 -12.728 85.9516
lradius 77.0237
lwrist 17.0239
lhand -29.9185 8.14246
lfingers 7.12502
lthumb -3.23874 38.0976
rfemur -45.1435 -1.20132 21.8848
rtibia 70.4207
rfoot -21.2772 -15.5453
rtoes -32.8376
lfemur 17.1012 -12.7571 -35.601
ltibia 3.14458
lfoot -26.3749 22.67
ltoes -8.52878
142
root -26.2993 14.3702 -0.0428476 47.2147 83.0843 42.3098
lowerback 11.5914 1.01814 -8.24262
upperback 4.45246 0.613878 -3.77699
thorax -1.84167 0.383574 0.604507
lowerneck -11.6403 4.64609 6.92738
upperneck 9.32652 5.35277 -2.03745
head 4.94549 2.74638 -1.33109
rclavicle -1.15295e-014 -9.54166e-015
rhumerus -51.6606 11.6033 -95.3522
rradius 72.9105
rwrist -26.2723
rhand -31.0089 6.61026
rfingers 7.12502
rthumb -4.29169 -23.3263
lclavicle -1.15295e-014 -9.54166e-015
lhumerus -28.0461 -13.3049 85.4924
lradius 81.965
lwrist 16.7657
lhand -29.9436 7.95001
lfingers 7.12502
lthumb -3.26301 37.9048
rfemur -46.6161 -1.34242 22.2827
rtibia 70.0616
rfoot -20.723 -14.8386
rtoes -33.3337
lfemur 19.855 -12.2198 -35.8029
ltibia 2.22639e-014
lfoot -24.9495 21.8434
ltoes -8.45733
143
root -26.0387 14.3273 -0.0485892 50.3824 83.2811 45.5502
lowerback 12.1394 0.903934 -8.40281
upperback 4.69562 0.419674 -3.68507
thorax -1.86893 0.288226 0.809722
lowerneck -11.5174 4.63856 6.9431
upperneck 8.6833 5.36366 -2.22864
head 4.73126 2.73291 -1.40083
rclavicle -5.1684e-015 5.00937e-014
rhumerus -53.4161 11.2329 -94.8923
rradius 74.4734
rwrist -26.84
rhand -31.3426 6.48156
rfingers 7.12502
rthumb -4.61398 -23.4482
lclavicle -5.1684e-015 5.00937e-014
lhumerus -26.3663 -13.8243 84.9515
lradius 86.6782
lwrist 16.2512
lhand -29.9755 7.59728
lfingers 7.12502
lthumb -3.2938 37.5516
rfemur -47.8813 -1.46496 22.615
rtibia 69.4466
rfoot -20.1949 -14.0581
rtoes -33.824
lfemur 21.0022 -11.7223 -35.9909
ltibia 9.54166e-015
lfoot -24.9509 21.0288
ltoes -8.93356
144
root -25.7675 14.2848 -0.0512208 54.1148 83.5033 49.3375
lowerback 12.665 0.78069 -8.51482
upperback 4.94973 0.223015 -3.59072
thorax -1.86933 0.191171 0.993675
lowerneck -11.3991 4.62153 6.95222
upperneck 8.0415 5.36258 -2.42798
head 4.5185 2.71401 -1.4727
rclavicle -1.63003e-014 1.82882e-014
rhumerus -55.1352 10.8763 -94.4758
rradius 76.0727
rwrist -27.4572
rhand -31.6563 6.39508
rfingers 7.12502
rthumb -4.91689 -23.5279
lclavicle -1.63003e-014 1.82882e-014
lhumerus -24.5626 -14.2814 84.3524
lradius 91.0313
lwrist 15.4977
lhand -30.1087 6.77416
lfingers 7.12502
lthumb -3.42244 36.7264
rfemur -48.9427 -1.5845 22.8807
rtibia 68.6001
rfoot -19.6773 -13.2137
rtoes -34.3432
lfemur 22.1633 -11.2979 -36.1156
ltibia 6.99722e-014
lfoot -24.7116 20.2359
ltoes -9.99216
145
root -25.4842 14.2468 -0.0509945 58.3838 83.7481 53.6133
lowerback 13.1041 0.648021 -8.57056
upperback 5.2234 0.033023 -3.48072
thorax -1.80046 0.0949308 1.16465
lowerneck -11.2914 4.59711 6.9389
upperneck 7.39408 5.35348 -2.62901
head 4.30555 2.6915 -1.54179
rclavicle -3.57812e-015 -1.27222e-014
rhumerus -56.7397 10.5331 -94.1014
rradius 77.6349
rwrist -28.1337
rhand -32.0082 6.32745
rfingers 7.12502
rthumb -5.25668 -23.5873
lclavicle -3.57812e-015 -1.27222e-014
lhumerus -22.6969 -14.6313 83.7445
lradius 94.9592
lwrist 14.5572
lhand -30.1368 5.81577
lfingers 7.12502
lthumb -3.44952 35.7676
rfemur -49.7858 -1.69614 23.0958
rtibia 67.5444
rfoot -19.2046 -12.3587
rtoes -34.8687
lfemur 23.3013 -10.9456 -36.1536
ltibia -2.54444e-014
lfoot -24.1891 19.4609
ltoes -11.4741
146
root -25.1878 14.2145 -0.0482457 62.979 84.0259 58.1304
lowerback 13.4434 0.506687 -8.52411
upperback 5.48552 -0.146427 -3.35304
thorax -1.69037 0.00252328 1.29777
lowerneck -11.1997 4.56444 6.91406
upperneck 6.76287 5.33306 -2.82954
head 4.10002 2.66449 -1.60907
rclavicle 2.78299e-015 2.94201e-014
rhumerus -58.1948 10.1844 -93.7936
rradius 79.0777
rwrist -28.8495
rhand -32.4224 6.25771
rfingers 7.12502
rthumb -5.65655 -23.6468
lclavicle 2.78299e-015 2.94201e-014
lhumerus -20.8896 -14.8592 83.1651
lradius 98.4022
lwrist 13.6051
lhand -30.1277 4.58147
lfingers 7.12502
lthumb -3.4408 34.5334
rfemur -50.4266 -1.76459 23.301
rtibia 66.3398
rfoot -18.7181 -11.5613
rtoes -35.4916
lfemur 24.3782 -10.6523 -36.0628
ltibia 2.8625e-014
lfoot -23.3622 18.681
ltoes -13.1109
147
root -24.8769 14.1894 -0.0430295 67.6709 84.3453 62.6472
lowerback 13.6841 0.363819 -8.35899
upperback 5.7156 -0.30703 -3.19845
thorax -1.56395 -0.0810194 1.39142
lowerneck -11.1109 4.52386 6.87695
upperneck 6.1504 5.30252 -3.02642
head 3.90044 2.63384 -1.67357
rclavicle -7.15625e-015 -1.27222e-014
rhumerus -59.4589 9.83124 -93.5751
rradius 80.346
rwrist -29.6574
rhand -32.9552 6.1448
rfingers 7.12502
rthumb -6.17096 -23.7453
lclavicle -7.15625e-015 -1.27222e-014
lhumerus -19.2831 -14.9768 82.6801
lradius 101.332
lwrist 12.7814
lhand -30.1309 3.23245
lfingers 7.12502
lthumb -3.44383 33.1844
rfemur -50.8693 -1.76067 23.534
rtibia 65.0634
rfoot -18.2737 -10.9098
rtoes -36.0791
lfemur 25.3806 -10.3929 -35.8136
ltibia -2.8625e-014
lfoot -22.217 17.8603
ltoes -14.6832
148
root -24.5512 14.1718 -0.0353791 72.4885 84.7083 67.1952
lowerback 13.8214 0.22071 -8.08159
upperback 5.91985 -0.44709 -3.01441
thorax -1.41342 -0.154928 1.45069
lowerneck -11.0594 4.48654 6.82971
upperneck 5.56967 5.27386 -3.2147
head 3.71672 2.60556 -1.73243
rclavicle -1.51076e-014 -3.33958e-014
rhumerus -60.4419 9.46402 -93.4368
rradius 81.3745
rwrist -30.5374
rhand -33.5627 6.0316
rfingers 7.12502
rthumb -6.75743 -23.8406
lclavicle -1.51076e-014 -3.33958e-014
lhumerus -17.9728 -15.0092 82.3443
lradius 103.752
lwrist 12.2409
lhand -30.233 1.93776
lfingers 7.12502
lthumb -3.54242 31.8881
rfemur -51.0998 -1.69288 23.8153
rtibia 63.83
rfoot -17.8599 -10.4657
rtoes -36.5375
lfemur 26.3099 -10.1565 -35.4042
ltibia -1.90833e-014
lfoot -20.7064 16.9705
ltoes -16.1387
